<svg xmlns="http://www.w3.org/2000/svg" viewBox="0 0 256 256">
  <rect width="256" height="256" fill="#f8fafc"/>
  <path d="M40 100h50v120H40z" fill="#64748b"/>
  <path d="M90 80h50v140H90z" fill="#1e40af"/>
  <path d="M140 60h76v160h-76z" fill="#64748b"/>
  <rect x="50" y="110" width="10" height="15" fill="#f8fafc"/>
  <rect x="70" y="110" width="10" height="15" fill="#f8fafc"/>
  <rect x="50" y="135" width="10" height="15" fill="#f8fafc"/>
  <rect x="70" y="135" width="10" height="15" fill="#f8fafc"/>
  <rect x="100" y="95" width="10" height="15" fill="#f8fafc"/>
  <rect x="120" y="95" width="10" height="15" fill="#f8fafc"/>
  <rect x="100" y="120" width="10" height="15" fill="#f8fafc"/>
  <rect x="120" y="120" width="10" height="15" fill="#f8fafc"/>
  <rect x="155" y="80" width="12" height="18" fill="#f8fafc"/>
  <rect x="180" y="80" width="12" height="18" fill="#f8fafc"/>
  <rect x="155" y="110" width="12" height="18" fill="#f8fafc"/>
  <rect x="180" y="110" width="12" height="18" fill="#f8fafc"/>
  <rect x="155" y="140" width="12" height="18" fill="#f8fafc"/>
  <rect x="180" y="140" width="12" height="18" fill="#f8fafc"/>
  <path d="M140 50l38-20v30z" fill="#1e40af"/>
  <path d="M178 30l38-20v30z" fill="#64748b"/>
  <circle cx="178" cy="178" r="42" fill="#1e40af"/>
  <path d="M160 178l12 12 24-28" stroke="#f8fafc" stroke-width="8" stroke-linecap="round" stroke-linejoin="round" fill="none"/>
</svg>